<svg xmlns="http://www.w3.org/2000/svg" width="100" height="100" viewBox="0 0 100 100"><defs><clipPath id="c"><circle cx="50" cy="50" r="50"/></clipPath></defs><g clip-path="url(#c)"><rect x="0" y="0" width="100" height="12" fill="#fff"/><rect x="0" y="11" width="100" height="12" fill="#0038a8"/><rect x="0" y="22" width="100" height="12" fill="#fff"/><rect x="0" y="33" width="100" height="12" fill="#0038a8"/><rect x="0" y="44" width="100" height="12" fill="#fff"/><rect x="0" y="56" width="100" height="12" fill="#0038a8"/><rect x="0" y="67" width="100" height="12" fill="#fff"/><rect x="0" y="78" width="100" height="12" fill="#0038a8"/><rect x="0" y="89" width="100" height="12" fill="#fff"/><rect x="0" y="0" width="45" height="45" fill="#fff"/><circle cx="22" cy="22" r="11" fill="#fcd116"/><polygon points="22.0,15.0 23.6,19.7 28.7,19.8 24.7,22.9 26.1,27.7 22.0,24.8 17.9,27.7 19.3,22.9 15.3,19.8 20.4,19.7" fill="#fcd116"/></g><circle cx="50" cy="50" r="49" fill="none" stroke="#00000022" stroke-width="2"/></svg>